<?xml version="1.0" encoding="UTF-8" standalone="no"?>
<svg
   xmlns:dc="http://purl.org/dc/elements/1.1/"
   xmlns:cc="http://creativecommons.org/ns#"
   xmlns:rdf="http://www.w3.org/1999/02/22-rdf-syntax-ns#"
   xmlns:svg="http://www.w3.org/2000/svg"
   xmlns="http://www.w3.org/2000/svg"
   viewBox="0 0 120.76 69.853333"
   height="69.853333"
   width="120.76"
   xml:space="preserve"
   id="svg2"
   version="1.1"><metadata
     id="metadata8"><rdf:RDF><cc:Work
         rdf:about=""><dc:format>image/svg+xml</dc:format><dc:type
           rdf:resource="http://purl.org/dc/dcmitype/StillImage" /></cc:Work></rdf:RDF></metadata><defs
     id="defs6" /><g
     transform="matrix(1.3333333,0,0,-1.3333333,0,69.853333)"
     id="g10"><g
       transform="scale(0.1)"
       id="g12"><path
         id="path14"
         style="fill:#231f20;fill-opacity:1;fill-rule:nonzero;stroke:none"
         d="m 104.504,427.324 v 43.719 c 0,3.383 -0.5,6 -0.5,6 0,0 3.059,-0.457 6.019,-0.457 h 33.02 c 25.059,0 39.801,-3.902 39.801,-26.723 0,-14.82 -9.16,-28.058 -38.801,-28.058 h -34.02 c -2.96,0 -5.902,-0.379 -5.902,-0.379 0,0 0.383,2.879 0.383,5.898 m 0,-100.379 v 50.559 c 0,3.422 -0.441,5.961 -0.441,5.961 0,0 3,-0.461 5.941,-0.461 h 27.879 c 22.258,0 49.48,0 49.48,-30.781 0,-22.778 -19.5,-30.821 -45.722,-30.821 h -31.637 c -3.024,0 -5.844,-0.418 -5.844,-0.418 0,0 0.344,3.102 0.344,5.961 m -79.9806,176.84 -0.0429,-210.66 c 0,-6.82 0.4414,-9.262 -4.418,-12.301 -4.7422,-2.922 -9.6016,-3.359 -17.37891,-4.738 0,0 -0.12109,-0.043 -0.16015,-0.043 -0.78125,-0.16 -0.6211,-3.117 0.16015,-3.117 H 173.082 c 71.879,0 102.16,28.558 102.16,73 0,32.937 -15.34,53.039 -45.699,60.558 -0.5,0.141 -0.5,0.821 0,1.039 19.32,5.981 37.141,19.981 37.141,54.219 0,46.461 -31.442,62.16 -99.903,62.16 L 2.74219,523.945 c -0.78125,0 -0.89844,-2.941 -0.17969,-3.14 0.05859,0 0.17969,-0.039 0.17969,-0.039 7.80081,-1.34 12.64061,-1.84 17.35941,-4.743 4.8789,-3 4.4218,-5.359 4.4218,-12.238" /><path
         id="path16"
         style="fill:#231f20;fill-opacity:1;fill-rule:nonzero;stroke:none"
         d="m 883.211,503.777 c 0,6.879 -0.438,9.262 4.402,12.262 4.739,2.879 9.598,3.399 17.399,4.719 0,0 0.101,0.039 0.121,0.039 0.777,0.199 0.68,3.101 -0.121,3.101 l -125.719,0.04 c -0.801,0 -0.961,-2.942 -0.18,-3.141 0.117,0 0.18,-0.039 0.18,-0.039 7.937,-1 11.66,-1.82 16.398,-4.719 4.782,-3 4.403,-5.461 4.403,-12.281 V 377.137 c 0,-28.84 -16.543,-51.039 -49.34,-51.039 -32.844,0 -49.402,22.199 -49.402,51.039 v 126.601 c 0,6.84 -0.36,9.301 4.441,12.301 4.758,2.879 8.719,3.617 16.398,4.719 0,0 0.082,0.039 0.102,0.039 0.801,0.199 0.68,3.101 -0.18,3.101 H 603.512 c -0.899,0 -0.66,-2.921 0.058,-3.101 0.063,0 0.184,-0.039 0.184,-0.039 4.316,-0.281 7.316,-0.52 9.957,-2.801 3.922,-3.32 4.582,-7.32 4.582,-14.18 V 379.316 c 0,-59.937 32.801,-110.918 132.461,-110.918 99.578,0 132.457,50.981 132.457,110.918 v 124.461" /><path
         id="path18"
         style="fill:#231f20;fill-opacity:1;fill-rule:nonzero;stroke:none"
         d="m 502.238,272.922 c 0.864,0 0.981,2.961 0.242,3.121 h -0.16 c -7.8,1.418 -12.66,1.84 -17.398,4.777 -4.82,3.043 -4.461,5.481 -4.461,12.301 v 79.942 l 86.98,129.039 c 4.7,7.082 7.739,10.8 11.68,14.101 0.66,0.539 2.238,1.578 3.219,2.219 3.601,1.82 4.941,2.219 9.422,2.379 h 0.117 c 0.801,0.082 1.043,3.101 0.121,3.101 l -117.219,0.039 c -0.941,0 -0.742,-3.078 0.039,-3.14 0.059,0 0.121,-0.059 0.121,-0.059 5.739,0 12.758,-0.101 11.618,-8.219 -0.68,-7.902 -34.481,-56.8 -46.481,-75.363 -1.738,-2.617 -3.078,-5.379 -3.68,-8.719 -0.437,3.262 -2.5,6.661 -3.859,8.719 -16.777,24.961 -45.519,65.442 -46.277,75.363 -0.723,8.5 5.84,8.278 11.5,8.278 h 0.16 c 0.859,0.082 1.117,3.14 0.117,3.14 L 275.02,523.902 c -0.782,0 -0.68,-2.781 0.058,-3.101 h 0.184 c 5.199,-0.559 8.039,-0.199 14.238,-3.199 0.719,-0.36 2.441,-1.461 3.121,-2.079 3.879,-3.281 6.301,-6.339 11.059,-13.402 l 86.781,-128.519 v -80.481 c 0,-6.82 0.418,-9.258 -4.422,-12.301 -4.758,-2.937 -9.578,-3.359 -17.418,-4.777 H 368.5 c -0.781,-0.16 -0.621,-3.121 0.121,-3.121 h 133.617" /><path
         id="path20"
         style="fill:#231f20;fill-opacity:1;fill-rule:nonzero;stroke:none"
         d="M 257.27,25.543 C 240.531,8.76172 221.988,1.46094 190.809,1.46094 c -10.719,0 -28.039,0.51953 -37,0.51953 -9.039,0 -20.239,-0.51953 -30.938,-0.51953 -0.742,0 -1,2.90234 0.258,3.16015 9.48,1 13.641,2.42188 16.519,4.14063 3.204,1.69918 5.122,5.85938 5.122,53.80078 v 35.5781 c 0,47.9614 -1.918,52.3204 -5.122,53.8394 -2.878,1.704 -7.039,3.141 -16.519,4.122 -1.258,0.218 -1,3.14 -0.258,3.14 10.699,0 21.899,-0.519 30.938,-0.519 8.961,0 31.382,0.519 42.339,0.519 48.961,0 84.282,-32.859 84.282,-76.8787 0,-21.2227 -8.52,-41.9414 -23.16,-56.8203 m -68.68,125.68 c -14.602,0 -20.66,-1.961 -22.418,-4.16 -1.402,-1.942 -3.621,-12.661 -3.621,-48.1997 V 62.5625 c 0,-31.1797 2.219,-43.3398 5.379,-46.7422 4.379,-4.6367 9.961,-6.31639 22.66,-6.31639 47.64,0 69.601,22.63669 69.601,68.43749 0,37.2816 -25.101,73.2816 -71.601,73.2816" /><path
         id="path22"
         style="fill:#231f20;fill-opacity:1;fill-rule:nonzero;stroke:none"
         d="m 417.508,1.46875 c -0.719,0 -0.961,2.89844 0,3.16016 7.539,0.73828 12.219,2.17968 12.219,5.83989 0,4.1601 -3.219,15.0781 -17.118,50.1601 H 362.227 C 350.77,29.2461 348.129,17.2695 348.129,12.207 c 0,-4.41794 3.418,-6.59762 13.859,-7.57809 0.918,-0.26172 0.739,-3.16016 0,-3.16016 h -49.922 c -0.679,0 -1.238,2.89844 0,3.16016 7.34,0.73828 11.68,2.17968 15.34,4.61718 2.442,1.92191 6.801,5.38281 24.364,53.32031 l 12.918,35.5625 c 7.539,20.4611 15.558,41.6801 21.66,60.5781 0.519,1.781 7.781,1.781 8.3,0 7.321,-21.098 13.641,-38.437 22.141,-60.5781 l 13.84,-35.5625 c 19,-47.9375 22.18,-51.5976 25.598,-53.82031 4.121,-2.71875 7.82,-3.3789 14.64,-4.11718 0.903,-0.26172 0.68,-3.16016 0,-3.16016 z M 387.309,129.289 365.906,70.6094 h 43.102 z" /><path
         id="path24"
         style="fill:#231f20;fill-opacity:1;fill-rule:nonzero;stroke:none"
         d="m 616.461,1.46875 c -0.981,0 -0.981,2.89844 0.262,3.16016 9.539,0.98047 13.66,2.41797 16.519,4.11718 2.942,1.72271 5.16,5.88281 5.16,53.82031 V 77.6875 H 546.344 V 62.5664 c 0,-47.9375 2.199,-52.0976 5.117,-53.82031 2.859,-1.69921 7,-3.13671 16.543,-4.11718 1.219,-0.26172 1.219,-3.16016 0.476,-3.16016 h -61.796 c -0.782,0 -0.981,2.89844 0.238,3.16016 9.441,0.98047 13.582,2.41797 16.539,4.11718 3.16,1.72271 5.082,5.88281 5.082,53.82031 v 35.5625 c 0,47.9801 -1.922,52.3401 -5.082,53.8401 -2.957,1.719 -7.098,3.14 -16.539,4.14 -1.219,0.2 -1.02,3.137 -0.238,3.137 h 61.796 c 0.743,0 0.743,-2.937 -0.476,-3.137 -9.543,-1 -13.684,-2.421 -16.543,-4.14 -2.918,-1.5 -5.117,-5.86 -5.117,-53.8401 V 86.7266 h 92.058 v 11.4023 c 0,47.9801 -2.218,52.3401 -5.16,53.8401 -2.859,1.719 -6.98,3.14 -16.519,4.14 -1.243,0.2 -1.243,3.137 -0.262,3.137 h 61.66 c 0.942,0 0.942,-2.937 -0.277,-3.137 -9.524,-1 -13.641,-2.421 -16.602,-4.14 -2.879,-1.5 -5.121,-5.86 -5.121,-53.8401 V 62.5664 c 0,-47.9375 2.242,-52.0976 5.121,-53.82031 2.961,-1.69921 7.078,-3.13671 16.602,-4.11718 1.219,-0.26172 1.219,-3.16016 0.277,-3.16016 h -61.66" /><path
         id="path26"
         style="fill:#231f20;fill-opacity:1;fill-rule:nonzero;stroke:none"
         d="m 808.605,0 c -46.281,0 -79.378,34.3398 -79.378,78.3789 0,41.9021 33.097,82.3401 82.781,82.3401 46.539,0 79.418,-34.34 79.418,-78.3596 C 891.426,40.4219 858.547,0 808.605,0 m -1.238,151.719 c -43.582,0 -57.961,-34.84 -57.961,-66.219 0,-39.7617 25.078,-76.46094 64.078,-76.46094 43.34,0 57.684,34.78124 57.684,66.19924 0,39.7227 -24.801,76.4807 -63.801,76.4807" /><path
         id="path28"
         style="fill:#231f20;fill-opacity:1;fill-rule:nonzero;stroke:none"
         d="m 2.05469,1.49219 c -0.71875,0 -0.71875,2.89844 0.24219,3.16015 9.50002,1.01954 15.87892,2.41797 18.80082,4.14063 2.8593,1.69923 5.0781,5.85933 5.0781,53.80083 v 35.539 c 0,47.9802 -2.2188,52.3402 -5.0781,53.8402 -2.9219,1.718 -9.3008,3.14 -18.80082,4.14 -0.96094,0.239 -0.96094,3.141 -0.24219,3.141 H 67.8164 c 0.7383,0 0.9609,-2.902 -0.2812,-3.141 -9.3985,-1 -15.5391,-2.422 -18.5,-4.14 -3.1211,-1.5 -5.3594,-5.86 -5.3594,-53.8402 v -35.539 c 0,-47.9415 2.2383,-52.1016 5.3594,-53.80083 2.9609,-1.72266 9.1015,-3.12109 18.5,-4.14063 1.2421,-0.26171 1.0195,-3.16015 0.2812,-3.16015 H 2.05469" /><path
         id="path30"
         style="fill:#231f20;fill-opacity:1;fill-rule:nonzero;stroke:none"
         d="M 877.43,212.516 H 3.53125 c -1.92187,0 -3.5195312,1.617 -3.5195312,3.578 0,1.961 1.5976612,3.582 3.5195312,3.582 H 877.43 c 2,0 3.558,-1.621 3.558,-3.582 0,-1.961 -1.558,-3.578 -3.558,-3.578" /></g></g></svg>